<svg id="svg" version="1.1" xmlns="http://www.w3.org/2000/svg" xmlns:xlink="http://www.w3.org/1999/xlink" width="400" height="400" viewBox="0, 0, 400,400"><g id="svgg"><path id="path0" d="M141.000 106.679 C 124.470 109.027,111.356 116.578,101.357 129.506 C 99.951 131.325,98.800 132.902,98.800 133.010 C 98.800 133.119,98.215 134.064,97.500 135.110 C 94.120 140.056,91.542 147.260,90.000 156.076 C 89.238 160.432,89.208 162.591,89.204 214.083 L 89.200 267.566 90.738 269.183 C 94.231 272.855,99.574 270.179,99.593 264.749 C 99.606 261.254,100.379 261.374,104.324 265.479 C 111.887 273.349,118.547 277.262,130.600 280.917 C 145.402 285.406,167.292 280.615,178.800 270.368 C 184.734 265.084,191.200 257.664,191.200 256.139 C 191.200 256.027,191.790 254.914,192.511 253.667 C 193.233 252.420,194.345 250.050,194.984 248.400 C 195.623 246.750,196.293 245.229,196.473 245.020 C 196.653 244.811,196.797 244.361,196.794 244.020 C 196.791 243.679,197.140 242.230,197.570 240.800 C 199.177 235.450,199.829 227.839,199.070 223.271 C 198.702 221.052,198.400 218.656,198.400 217.946 C 198.400 215.468,195.224 206.659,192.515 201.625 C 188.286 193.765,181.852 186.619,174.561 181.685 C 170.053 178.636,159.684 174.518,154.200 173.601 C 152.660 173.343,150.590 172.978,149.600 172.790 C 147.146 172.323,141.516 172.332,138.600 172.807 C 123.419 175.279,113.448 180.233,104.232 189.883 C 101.016 193.250,100.278 193.701,99.843 192.567 C 99.138 190.730,99.614 159.391,100.405 155.600 C 101.849 148.678,105.844 139.730,108.800 136.800 C 108.911 136.690,109.526 135.828,110.166 134.885 C 111.520 132.890,116.822 127.788,119.294 126.101 C 120.232 125.461,121.720 124.439,122.600 123.831 C 126.449 121.169,133.949 118.221,138.569 117.554 C 139.906 117.361,141.900 117.033,143.000 116.826 C 144.100 116.618,146.059 116.437,147.353 116.424 C 153.668 116.360,155.745 109.448,150.228 106.855 C 148.160 105.883,146.788 105.857,141.000 106.679 M275.550 106.184 C 275.449 106.285,273.394 106.644,270.983 106.982 C 249.847 109.945,231.829 124.183,224.391 143.800 C 223.890 145.120,223.237 146.767,222.940 147.460 C 222.643 148.154,222.400 149.111,222.400 149.587 C 222.400 150.063,222.187 150.846,221.926 151.326 C 220.393 154.155,220.291 157.643,220.136 212.906 C 219.998 261.954,220.041 266.520,220.644 267.706 C 223.423 273.171,229.969 271.447,230.400 265.135 C 230.663 261.292,231.157 261.228,234.436 264.611 C 235.846 266.065,238.243 268.278,239.762 269.528 C 241.281 270.777,242.806 272.115,243.151 272.500 C 243.496 272.885,243.949 273.200,244.157 273.200 C 244.366 273.200,244.821 273.448,245.169 273.751 C 251.154 278.975,272.665 284.518,277.460 282.071 C 282.759 279.368,280.586 272.398,274.446 272.402 C 264.678 272.409,253.344 267.987,245.944 261.282 C 239.861 255.770,238.512 253.899,233.772 244.400 C 233.498 243.850,233.146 242.723,232.991 241.896 C 232.836 241.068,232.560 240.299,232.378 240.186 C 232.195 240.074,231.934 239.131,231.796 238.091 C 231.659 237.051,231.289 235.108,230.973 233.774 C 230.227 230.616,230.240 224.381,231.000 221.465 C 231.330 220.198,231.600 218.763,231.600 218.277 C 231.600 217.159,234.096 210.082,235.506 207.200 C 241.283 195.398,252.229 187.272,267.021 183.804 C 270.326 183.029,281.350 183.139,284.400 183.977 C 290.822 185.742,296.004 187.769,299.000 189.688 C 304.712 193.346,311.710 200.723,314.095 205.600 C 314.364 206.150,314.709 206.693,314.863 206.806 C 315.016 206.919,315.785 208.606,316.571 210.556 C 323.021 226.556,319.814 245.534,308.655 257.400 C 305.183 261.092,304.650 263.775,306.900 266.231 C 310.762 270.445,315.771 266.934,323.149 254.840 C 328.517 246.040,331.527 229.833,329.657 219.800 C 328.052 211.194,324.872 202.113,322.571 199.569 C 322.257 199.221,322.000 198.814,322.000 198.665 C 322.000 197.266,312.663 186.859,309.000 184.177 C 308.120 183.532,307.310 182.903,307.200 182.778 C 306.773 182.294,302.055 179.605,299.200 178.220 C 293.671 175.536,289.275 174.254,280.600 172.795 C 278.036 172.363,272.375 172.362,269.800 172.793 C 263.394 173.863,262.081 174.137,260.940 174.642 C 260.246 174.949,259.346 175.201,258.940 175.202 C 258.533 175.204,257.684 175.474,257.054 175.802 C 256.424 176.131,255.741 176.400,255.536 176.400 C 254.590 176.400,243.946 181.893,243.200 182.766 C 243.090 182.895,241.939 183.891,240.641 184.981 C 239.344 186.070,236.859 188.377,235.118 190.106 C 230.279 194.912,230.600 195.871,230.600 176.594 C 230.600 158.201,230.831 156.185,233.894 147.800 C 239.414 132.692,254.797 119.711,269.732 117.559 C 271.089 117.363,273.100 117.033,274.200 116.826 C 275.300 116.618,277.349 116.437,278.753 116.424 C 284.611 116.369,286.399 109.817,281.350 106.907 C 279.941 106.094,276.116 105.618,275.550 106.184 M152.200 183.812 C 153.080 184.129,154.256 184.391,154.814 184.394 C 156.480 184.404,161.347 186.197,165.400 188.294 C 169.056 190.186,170.811 191.543,176.227 196.662 C 180.690 200.881,183.742 206.008,186.786 214.400 C 189.124 220.845,189.174 236.010,186.872 240.274 C 186.612 240.754,186.400 241.447,186.400 241.813 C 186.400 242.179,186.147 243.046,185.839 243.740 C 185.530 244.433,184.821 246.033,184.263 247.296 C 183.405 249.237,181.378 252.627,179.807 254.749 C 179.147 255.640,173.071 261.709,171.694 262.852 C 167.056 266.703,157.430 271.163,153.644 271.214 C 153.070 271.222,151.520 271.489,150.200 271.808 C 141.982 273.792,127.625 270.633,119.636 265.082 C 114.631 261.604,108.000 255.087,108.000 253.644 C 108.000 253.400,107.841 253.200,107.646 253.200 C 107.009 253.200,103.907 247.618,102.220 243.439 C 98.144 233.340,98.915 216.955,103.879 208.200 C 104.378 207.320,104.958 206.213,105.168 205.740 C 106.112 203.613,110.597 197.905,113.355 195.320 C 119.847 189.235,125.399 186.352,135.400 183.872 C 138.709 183.052,149.978 183.011,152.200 183.812 " stroke="none" fill="#0c0c0c" fill-rule="evenodd"></path><path id="path1" d="M175.600 0.400 C 175.600 0.644,173.733 0.800,170.800 0.800 C 167.173 0.800,166.024 0.922,166.100 1.300 C 166.173 1.663,165.239 1.832,162.700 1.916 C 159.529 2.020,159.200 2.105,159.200 2.816 C 159.200 3.532,155.211 4.051,153.015 3.619 C 152.804 3.578,152.431 3.816,152.188 4.149 C 151.905 4.536,150.962 4.788,149.573 4.847 C 148.003 4.915,147.255 5.143,146.877 5.671 C 146.492 6.208,145.833 6.400,144.377 6.400 C 142.886 6.400,142.400 6.548,142.400 7.000 C 142.400 7.453,141.911 7.600,140.400 7.600 C 138.667 7.600,138.400 7.707,138.400 8.400 C 138.400 9.094,138.133 9.200,136.387 9.200 C 134.968 9.200,134.307 9.377,134.145 9.800 C 133.983 10.220,133.328 10.400,131.957 10.400 C 130.267 10.400,130.000 10.509,130.000 11.200 C 130.000 11.903,129.733 12.000,127.800 12.000 C 126.111 12.000,125.600 12.139,125.600 12.600 C 125.600 13.019,125.178 13.200,124.200 13.200 C 123.222 13.200,122.800 13.381,122.800 13.800 C 122.800 14.197,122.403 14.400,121.624 14.400 C 120.977 14.400,120.341 14.572,120.211 14.783 C 120.081 14.993,119.679 15.052,119.318 14.913 C 118.824 14.724,118.725 14.827,118.918 15.331 C 119.132 15.887,118.907 16.000,117.587 16.000 C 116.443 16.000,116.000 16.167,116.000 16.600 C 116.000 17.208,115.590 17.354,114.270 17.216 C 113.829 17.170,113.455 17.468,113.324 17.970 C 113.158 18.604,112.787 18.800,111.753 18.800 C 110.817 18.800,110.400 18.985,110.400 19.400 C 110.400 19.804,109.996 20.000,109.163 20.000 C 108.262 20.000,107.868 20.217,107.716 20.800 C 107.559 21.401,107.170 21.600,106.153 21.600 C 105.217 21.600,104.800 21.785,104.800 22.200 C 104.800 22.604,104.396 22.800,103.563 22.800 C 102.662 22.800,102.268 23.017,102.116 23.600 C 101.970 24.158,101.570 24.400,100.796 24.400 C 100.178 24.400,99.584 24.666,99.455 25.000 C 99.329 25.330,98.949 25.600,98.613 25.600 C 98.267 25.600,98.000 25.948,98.000 26.400 C 98.000 27.048,97.733 27.200,96.600 27.200 C 95.622 27.200,95.200 27.381,95.200 27.800 C 95.200 28.204,94.796 28.400,93.963 28.400 C 93.081 28.400,92.668 28.620,92.526 29.163 C 92.416 29.583,91.965 30.021,91.523 30.136 C 91.081 30.252,90.838 30.538,90.983 30.773 C 91.151 31.045,90.731 31.200,89.824 31.200 C 88.667 31.200,88.400 31.350,88.400 32.000 C 88.400 32.533,88.133 32.800,87.600 32.800 C 87.156 32.800,86.800 33.067,86.800 33.400 C 86.800 33.804,86.396 34.000,85.563 34.000 C 84.662 34.000,84.268 34.217,84.116 34.800 C 84.001 35.240,83.658 35.600,83.353 35.600 C 83.049 35.600,82.800 35.870,82.800 36.200 C 82.800 36.530,82.461 36.800,82.047 36.800 C 81.630 36.800,81.200 37.157,81.084 37.600 C 80.932 38.183,80.538 38.400,79.637 38.400 C 78.957 38.400,78.400 38.580,78.400 38.800 C 78.400 39.321,77.124 40.590,76.269 40.918 C 75.901 41.059,75.600 41.451,75.600 41.787 C 75.600 42.181,75.227 42.400,74.556 42.400 C 73.465 42.400,71.619 43.840,71.607 44.700 C 71.603 44.975,71.240 45.200,70.800 45.200 C 70.356 45.200,70.000 45.467,70.000 45.800 C 70.000 46.130,69.730 46.400,69.400 46.400 C 69.067 46.400,68.800 46.756,68.800 47.200 C 68.800 47.733,68.533 48.000,68.000 48.000 C 67.556 48.000,67.200 48.267,67.200 48.600 C 67.200 48.930,67.020 49.223,66.800 49.250 C 66.580 49.278,66.220 49.345,66.000 49.400 C 65.780 49.455,65.420 49.523,65.200 49.550 C 64.980 49.578,64.800 49.870,64.800 50.200 C 64.800 50.741,64.325 50.978,63.500 50.847 C 63.335 50.821,63.200 51.070,63.200 51.400 C 63.200 51.730,62.930 52.000,62.600 52.000 C 62.267 52.000,62.000 52.356,62.000 52.800 C 62.000 53.341,61.733 53.600,61.176 53.600 C 60.695 53.600,60.462 53.777,60.617 54.027 C 60.762 54.262,60.503 54.553,60.040 54.674 C 59.562 54.799,59.200 55.218,59.200 55.647 C 59.200 56.133,58.917 56.400,58.400 56.400 C 57.956 56.400,57.600 56.667,57.600 57.000 C 57.600 57.330,57.330 57.600,57.000 57.600 C 56.667 57.600,56.400 57.956,56.400 58.400 C 56.400 58.917,56.133 59.200,55.647 59.200 C 55.218 59.200,54.799 59.562,54.674 60.040 C 54.553 60.503,54.262 60.762,54.027 60.617 C 53.777 60.462,53.600 60.695,53.600 61.176 C 53.600 61.733,53.341 62.000,52.800 62.000 C 52.356 62.000,52.000 62.267,52.000 62.600 C 52.000 62.930,51.730 63.200,51.400 63.200 C 51.070 63.200,50.821 63.335,50.847 63.500 C 50.978 64.325,50.741 64.800,50.200 64.800 C 49.870 64.800,49.578 64.980,49.550 65.200 C 49.523 65.420,49.455 65.780,49.400 66.000 C 49.345 66.220,49.278 66.580,49.250 66.800 C 49.223 67.020,48.930 67.200,48.600 67.200 C 48.267 67.200,48.000 67.556,48.000 68.000 C 48.000 68.533,47.733 68.800,47.200 68.800 C 46.756 68.800,46.400 69.067,46.400 69.400 C 46.400 69.730,46.130 70.000,45.800 70.000 C 45.467 70.000,45.200 70.356,45.200 70.800 C 45.200 71.240,45.000 71.600,44.756 71.600 C 43.879 71.600,42.414 73.409,42.407 74.500 C 42.402 75.218,42.187 75.600,41.787 75.600 C 41.451 75.600,41.059 75.901,40.918 76.269 C 40.590 77.124,39.321 78.400,38.800 78.400 C 38.580 78.400,38.400 78.957,38.400 79.637 C 38.400 80.538,38.183 80.932,37.600 81.084 C 37.157 81.200,36.800 81.630,36.800 82.047 C 36.800 82.461,36.530 82.800,36.200 82.800 C 35.870 82.800,35.600 83.049,35.600 83.353 C 35.600 83.658,35.240 84.001,34.800 84.116 C 34.217 84.268,34.000 84.662,34.000 85.563 C 34.000 86.396,33.804 86.800,33.400 86.800 C 33.067 86.800,32.800 87.156,32.800 87.600 C 32.800 88.133,32.533 88.400,32.000 88.400 C 31.350 88.400,31.200 88.667,31.200 89.824 C 31.200 90.731,31.045 91.151,30.773 90.983 C 30.538 90.838,30.252 91.081,30.136 91.523 C 30.021 91.965,29.583 92.416,29.163 92.526 C 28.620 92.668,28.400 93.081,28.400 93.963 C 28.400 94.796,28.204 95.200,27.800 95.200 C 27.381 95.200,27.200 95.622,27.200 96.600 C 27.200 97.733,27.048 98.000,26.400 98.000 C 25.948 98.000,25.600 98.267,25.600 98.613 C 25.600 98.949,25.330 99.329,25.000 99.455 C 24.666 99.584,24.400 100.178,24.400 100.796 C 24.400 101.570,24.158 101.970,23.600 102.116 C 23.017 102.268,22.800 102.662,22.800 103.563 C 22.800 104.396,22.604 104.800,22.200 104.800 C 21.785 104.800,21.600 105.217,21.600 106.153 C 21.600 107.170,21.401 107.559,20.800 107.716 C 20.217 107.868,20.000 108.262,20.000 109.163 C 20.000 109.996,19.804 110.400,19.400 110.400 C 18.985 110.400,18.800 110.817,18.800 111.753 C 18.800 112.787,18.604 113.158,17.970 113.324 C 17.468 113.455,17.170 113.829,17.216 114.270 C 17.354 115.590,17.208 116.000,16.600 116.000 C 16.167 116.000,16.000 116.443,16.000 117.587 C 16.000 118.907,15.887 119.132,15.331 118.918 C 14.827 118.725,14.724 118.824,14.913 119.318 C 15.052 119.679,14.993 120.081,14.783 120.211 C 14.572 120.341,14.400 120.977,14.400 121.624 C 14.400 122.403,14.197 122.800,13.800 122.800 C 13.381 122.800,13.200 123.222,13.200 124.200 C 13.200 125.178,13.019 125.600,12.600 125.600 C 12.139 125.600,12.000 126.111,12.000 127.800 C 12.000 129.733,11.903 130.000,11.200 130.000 C 10.509 130.000,10.400 130.267,10.400 131.957 C 10.400 133.328,10.220 133.983,9.800 134.145 C 9.377 134.307,9.200 134.968,9.200 136.387 C 9.200 138.133,9.094 138.400,8.400 138.400 C 7.707 138.400,7.600 138.667,7.600 140.400 C 7.600 141.911,7.453 142.400,7.000 142.400 C 6.548 142.400,6.400 142.886,6.400 144.377 C 6.400 145.833,6.208 146.492,5.671 146.877 C 5.143 147.255,4.915 148.003,4.847 149.573 C 4.788 150.962,4.536 151.905,4.149 152.188 C 3.816 152.431,3.578 152.804,3.619 153.015 C 4.051 155.211,3.532 159.200,2.816 159.200 C 2.105 159.200,2.020 159.529,1.916 162.700 C 1.832 165.239,1.663 166.173,1.300 166.100 C 0.922 166.024,0.800 167.173,0.800 170.800 C 0.800 173.733,0.644 175.600,0.400 175.600 C 0.138 175.600,0.000 184.000,0.000 200.000 C 0.000 216.000,0.138 224.400,0.400 224.400 C 0.644 224.400,0.800 226.267,0.800 229.200 C 0.800 232.827,0.922 233.976,1.300 233.900 C 1.663 233.827,1.832 234.761,1.916 237.300 C 2.020 240.471,2.105 240.800,2.816 240.800 C 3.518 240.800,3.605 241.102,3.646 243.700 C 3.706 247.492,3.719 247.576,4.276 247.922 C 4.538 248.085,4.795 249.204,4.847 250.409 C 4.915 251.996,5.142 252.744,5.671 253.123 C 6.208 253.508,6.400 254.167,6.400 255.623 C 6.400 257.114,6.548 257.600,7.000 257.600 C 7.453 257.600,7.600 258.089,7.600 259.600 C 7.600 261.333,7.707 261.600,8.400 261.600 C 9.094 261.600,9.200 261.867,9.200 263.613 C 9.200 265.032,9.377 265.693,9.800 265.855 C 10.220 266.017,10.400 266.672,10.400 268.043 C 10.400 269.733,10.509 270.000,11.200 270.000 C 11.903 270.000,12.000 270.267,12.000 272.200 C 12.000 273.889,12.139 274.400,12.600 274.400 C 13.019 274.400,13.200 274.822,13.200 275.800 C 13.200 276.778,13.381 277.200,13.800 277.200 C 14.197 277.200,14.400 277.597,14.400 278.376 C 14.400 279.023,14.572 279.659,14.783 279.789 C 14.993 279.919,15.052 280.321,14.913 280.682 C 14.724 281.176,14.827 281.275,15.331 281.082 C 15.887 280.868,16.000 281.093,16.000 282.413 C 16.000 283.557,16.167 284.000,16.600 284.000 C 17.208 284.000,17.354 284.410,17.216 285.730 C 17.170 286.171,17.468 286.545,17.970 286.676 C 18.604 286.842,18.800 287.213,18.800 288.247 C 18.800 289.183,18.985 289.600,19.400 289.600 C 19.804 289.600,20.000 290.004,20.000 290.837 C 20.000 291.738,20.217 292.132,20.800 292.284 C 21.401 292.441,21.600 292.830,21.600 293.847 C 21.600 294.783,21.785 295.200,22.200 295.200 C 22.604 295.200,22.800 295.604,22.800 296.437 C 22.800 297.338,23.017 297.732,23.600 297.884 C 24.158 298.030,24.400 298.430,24.400 299.204 C 24.400 299.822,24.666 300.416,25.000 300.545 C 25.330 300.671,25.600 301.051,25.600 301.387 C 25.600 301.733,25.948 302.000,26.400 302.000 C 27.048 302.000,27.200 302.267,27.200 303.400 C 27.200 304.378,27.381 304.800,27.800 304.800 C 28.204 304.800,28.400 305.204,28.400 306.037 C 28.400 306.919,28.620 307.332,29.163 307.474 C 29.583 307.584,30.021 308.035,30.136 308.477 C 30.252 308.919,30.538 309.162,30.773 309.017 C 31.045 308.849,31.200 309.269,31.200 310.176 C 31.200 311.333,31.350 311.600,32.000 311.600 C 32.533 311.600,32.800 311.867,32.800 312.400 C 32.800 312.844,33.067 313.200,33.400 313.200 C 33.804 313.200,34.000 313.604,34.000 314.437 C 34.000 315.338,34.217 315.732,34.800 315.884 C 35.240 315.999,35.600 316.342,35.600 316.647 C 35.600 316.951,35.870 317.200,36.200 317.200 C 36.530 317.200,36.800 317.539,36.800 317.953 C 36.800 318.370,37.157 318.800,37.600 318.916 C 38.183 319.068,38.400 319.462,38.400 320.363 C 38.400 321.043,38.580 321.600,38.800 321.600 C 39.321 321.600,40.590 322.876,40.918 323.731 C 41.059 324.099,41.451 324.400,41.787 324.400 C 42.187 324.400,42.402 324.782,42.407 325.500 C 42.414 326.591,43.879 328.400,44.756 328.400 C 45.000 328.400,45.200 328.760,45.200 329.200 C 45.200 329.644,45.467 330.000,45.800 330.000 C 46.130 330.000,46.400 330.270,46.400 330.600 C 46.400 330.933,46.756 331.200,47.200 331.200 C 47.733 331.200,48.000 331.467,48.000 332.000 C 48.000 332.444,48.267 332.800,48.600 332.800 C 48.930 332.800,49.223 332.980,49.250 333.200 C 49.278 333.420,49.345 333.780,49.400 334.000 C 49.455 334.220,49.523 334.580,49.550 334.800 C 49.578 335.020,49.870 335.200,50.200 335.200 C 50.741 335.200,50.978 335.675,50.847 336.500 C 50.821 336.665,51.070 336.800,51.400 336.800 C 51.730 336.800,52.000 337.070,52.000 337.400 C 52.000 337.733,52.356 338.000,52.800 338.000 C 53.341 338.000,53.600 338.267,53.600 338.824 C 53.600 339.305,53.777 339.538,54.027 339.383 C 54.262 339.238,54.553 339.497,54.674 339.960 C 54.799 340.438,55.218 340.800,55.647 340.800 C 56.133 340.800,56.400 341.083,56.400 341.600 C 56.400 342.044,56.667 342.400,57.000 342.400 C 57.330 342.400,57.600 342.670,57.600 343.000 C 57.600 343.333,57.956 343.600,58.400 343.600 C 58.917 343.600,59.200 343.867,59.200 344.353 C 59.200 344.782,59.562 345.201,60.040 345.326 C 60.503 345.447,60.762 345.738,60.617 345.973 C 60.462 346.223,60.695 346.400,61.176 346.400 C 61.733 346.400,62.000 346.659,62.000 347.200 C 62.000 347.644,62.267 348.000,62.600 348.000 C 62.930 348.000,63.200 348.270,63.200 348.600 C 63.200 348.930,63.335 349.179,63.500 349.153 C 64.325 349.022,64.800 349.259,64.800 349.800 C 64.800 350.130,64.980 350.423,65.200 350.450 C 65.420 350.478,65.780 350.545,66.000 350.600 C 66.220 350.655,66.580 350.723,66.800 350.750 C 67.020 350.778,67.200 351.070,67.200 351.400 C 67.200 351.733,67.556 352.000,68.000 352.000 C 68.533 352.000,68.800 352.267,68.800 352.800 C 68.800 353.244,69.067 353.600,69.400 353.600 C 69.730 353.600,70.000 353.870,70.000 354.200 C 70.000 354.533,70.356 354.800,70.800 354.800 C 71.240 354.800,71.603 355.025,71.607 355.300 C 71.619 356.160,73.465 357.600,74.556 357.600 C 75.227 357.600,75.600 357.819,75.600 358.213 C 75.600 358.549,75.901 358.941,76.269 359.082 C 77.124 359.410,78.400 360.679,78.400 361.200 C 78.400 361.420,78.957 361.600,79.637 361.600 C 80.538 361.600,80.932 361.817,81.084 362.400 C 81.200 362.843,81.630 363.200,82.047 363.200 C 82.461 363.200,82.800 363.470,82.800 363.800 C 82.800 364.130,83.049 364.400,83.353 364.400 C 83.658 364.400,84.001 364.760,84.116 365.200 C 84.268 365.783,84.662 366.000,85.563 366.000 C 86.396 366.000,86.800 366.196,86.800 366.600 C 86.800 366.933,87.156 367.200,87.600 367.200 C 88.133 367.200,88.400 367.467,88.400 368.000 C 88.400 368.650,88.667 368.800,89.824 368.800 C 90.731 368.800,91.151 368.955,90.983 369.227 C 90.838 369.462,91.081 369.748,91.523 369.864 C 91.965 369.979,92.416 370.417,92.526 370.837 C 92.668 371.380,93.081 371.600,93.963 371.600 C 94.796 371.600,95.200 371.796,95.200 372.200 C 95.200 372.619,95.622 372.800,96.600 372.800 C 97.733 372.800,98.000 372.952,98.000 373.600 C 98.000 374.052,98.267 374.400,98.613 374.400 C 98.949 374.400,99.329 374.670,99.455 375.000 C 99.584 375.334,100.178 375.600,100.796 375.600 C 101.570 375.600,101.970 375.842,102.116 376.400 C 102.268 376.983,102.662 377.200,103.563 377.200 C 104.396 377.200,104.800 377.396,104.800 377.800 C 104.800 378.215,105.217 378.400,106.153 378.400 C 107.170 378.400,107.559 378.599,107.716 379.200 C 107.868 379.783,108.262 380.000,109.163 380.000 C 109.996 380.000,110.400 380.196,110.400 380.600 C 110.400 381.015,110.817 381.200,111.753 381.200 C 112.787 381.200,113.158 381.396,113.324 382.030 C 113.455 382.532,113.829 382.830,114.270 382.784 C 115.590 382.646,116.000 382.792,116.000 383.400 C 116.000 383.833,116.443 384.000,117.587 384.000 C 118.907 384.000,119.132 384.113,118.918 384.669 C 118.725 385.173,118.824 385.276,119.318 385.087 C 119.679 384.948,120.081 385.007,120.211 385.217 C 120.341 385.428,120.977 385.600,121.624 385.600 C 122.403 385.600,122.800 385.803,122.800 386.200 C 122.800 386.619,123.222 386.800,124.200 386.800 C 125.178 386.800,125.600 386.981,125.600 387.400 C 125.600 387.861,126.111 388.000,127.800 388.000 C 129.733 388.000,130.000 388.097,130.000 388.800 C 130.000 389.491,130.267 389.600,131.957 389.600 C 133.328 389.600,133.983 389.780,134.145 390.200 C 134.307 390.623,134.968 390.800,136.387 390.800 C 138.133 390.800,138.400 390.906,138.400 391.600 C 138.400 392.293,138.667 392.400,140.400 392.400 C 141.911 392.400,142.400 392.547,142.400 393.000 C 142.400 393.452,142.886 393.600,144.377 393.600 C 145.833 393.600,146.492 393.792,146.877 394.329 C 147.255 394.857,148.003 395.085,149.573 395.153 C 150.962 395.212,151.905 395.464,152.188 395.851 C 152.431 396.184,152.804 396.422,153.015 396.381 C 155.211 395.949,159.200 396.468,159.200 397.184 C 159.200 397.895,159.529 397.980,162.700 398.084 C 165.239 398.168,166.173 398.337,166.100 398.700 C 166.024 399.078,167.173 399.200,170.800 399.200 C 173.733 399.200,175.600 399.356,175.600 399.600 C 175.600 399.862,184.000 400.000,200.000 400.000 C 216.000 400.000,224.400 399.862,224.400 399.600 C 224.400 399.356,226.267 399.200,229.200 399.200 C 232.827 399.200,233.976 399.078,233.900 398.700 C 233.827 398.337,234.761 398.168,237.300 398.084 C 240.471 397.980,240.800 397.895,240.800 397.184 C 240.800 396.468,244.789 395.949,246.985 396.381 C 247.196 396.422,247.569 396.184,247.812 395.851 C 248.095 395.464,249.038 395.212,250.427 395.153 C 251.997 395.085,252.745 394.857,253.123 394.329 C 253.508 393.792,254.167 393.600,255.623 393.600 C 257.114 393.600,257.600 393.452,257.600 393.000 C 257.600 392.547,258.089 392.400,259.600 392.400 C 261.333 392.400,261.600 392.293,261.600 391.600 C 261.600 390.906,261.867 390.800,263.613 390.800 C 265.032 390.800,265.693 390.623,265.855 390.200 C 266.017 389.780,266.672 389.600,268.043 389.600 C 269.733 389.600,270.000 389.491,270.000 388.800 C 270.000 388.097,270.267 388.000,272.200 388.000 C 273.889 388.000,274.400 387.861,274.400 387.400 C 274.400 386.981,274.822 386.800,275.800 386.800 C 276.778 386.800,277.200 386.619,277.200 386.200 C 277.200 385.803,277.597 385.600,278.376 385.600 C 279.023 385.600,279.659 385.428,279.789 385.217 C 279.919 385.007,280.321 384.948,280.682 385.087 C 281.176 385.276,281.275 385.173,281.082 384.669 C 280.868 384.113,281.093 384.000,282.413 384.000 C 283.557 384.000,284.000 383.833,284.000 383.400 C 284.000 382.792,284.410 382.646,285.730 382.784 C 286.171 382.830,286.545 382.532,286.676 382.030 C 286.842 381.396,287.213 381.200,288.247 381.200 C 289.183 381.200,289.600 381.015,289.600 380.600 C 289.600 380.196,290.004 380.000,290.837 380.000 C 291.738 380.000,292.132 379.783,292.284 379.200 C 292.441 378.599,292.830 378.400,293.847 378.400 C 294.783 378.400,295.200 378.215,295.200 377.800 C 295.200 377.396,295.604 377.200,296.437 377.200 C 297.338 377.200,297.732 376.983,297.884 376.400 C 298.030 375.842,298.430 375.600,299.204 375.600 C 299.822 375.600,300.416 375.334,300.545 375.000 C 300.671 374.670,301.051 374.400,301.387 374.400 C 301.733 374.400,302.000 374.052,302.000 373.600 C 302.000 372.952,302.267 372.800,303.400 372.800 C 304.378 372.800,304.800 372.619,304.800 372.200 C 304.800 371.796,305.204 371.600,306.037 371.600 C 306.919 371.600,307.332 371.380,307.474 370.837 C 307.584 370.417,308.035 369.979,308.477 369.864 C 308.919 369.748,309.162 369.462,309.017 369.227 C 308.849 368.955,309.269 368.800,310.176 368.800 C 311.333 368.800,311.600 368.650,311.600 368.000 C 311.600 367.467,311.867 367.200,312.400 367.200 C 312.844 367.200,313.200 366.933,313.200 366.600 C 313.200 366.196,313.604 366.000,314.437 366.000 C 315.338 366.000,315.732 365.783,315.884 365.200 C 315.999 364.760,316.342 364.400,316.647 364.400 C 316.951 364.400,317.200 364.130,317.200 363.800 C 317.200 363.470,317.539 363.200,317.953 363.200 C 318.370 363.200,318.800 362.843,318.916 362.400 C 319.068 361.817,319.462 361.600,320.363 361.600 C 321.043 361.600,321.600 361.420,321.600 361.200 C 321.600 360.679,322.876 359.410,323.731 359.082 C 324.099 358.941,324.400 358.549,324.400 358.213 C 324.400 357.819,324.773 357.600,325.444 357.600 C 326.535 357.600,328.381 356.160,328.393 355.300 C 328.397 355.025,328.760 354.800,329.200 354.800 C 329.644 354.800,330.000 354.533,330.000 354.200 C 330.000 353.870,330.270 353.600,330.600 353.600 C 330.933 353.600,331.200 353.244,331.200 352.800 C 331.200 352.267,331.467 352.000,332.000 352.000 C 332.444 352.000,332.800 351.733,332.800 351.400 C 332.800 351.070,332.980 350.778,333.200 350.750 C 333.420 350.723,333.780 350.655,334.000 350.600 C 334.220 350.545,334.580 350.478,334.800 350.450 C 335.020 350.423,335.200 350.130,335.200 349.800 C 335.200 349.259,335.675 349.022,336.500 349.153 C 336.665 349.179,336.800 348.930,336.800 348.600 C 336.800 348.270,337.070 348.000,337.400 348.000 C 337.733 348.000,338.000 347.644,338.000 347.200 C 338.000 346.659,338.267 346.400,338.824 346.400 C 339.305 346.400,339.538 346.223,339.383 345.973 C 339.238 345.738,339.497 345.447,339.960 345.326 C 340.438 345.201,340.800 344.782,340.800 344.353 C 340.800 343.867,341.083 343.600,341.600 343.600 C 342.044 343.600,342.400 343.333,342.400 343.000 C 342.400 342.670,342.670 342.400,343.000 342.400 C 343.333 342.400,343.600 342.044,343.600 341.600 C 343.600 341.083,343.867 340.800,344.353 340.800 C 344.782 340.800,345.201 340.438,345.326 339.960 C 345.447 339.497,345.738 339.238,345.973 339.383 C 346.223 339.538,346.400 339.305,346.400 338.824 C 346.400 338.267,346.659 338.000,347.200 338.000 C 347.644 338.000,348.000 337.733,348.000 337.400 C 348.000 337.070,348.270 336.800,348.600 336.800 C 348.930 336.800,349.179 336.665,349.153 336.500 C 349.022 335.675,349.259 335.200,349.800 335.200 C 350.130 335.200,350.423 335.020,350.450 334.800 C 350.478 334.580,350.545 334.220,350.600 334.000 C 350.655 333.780,350.723 333.420,350.750 333.200 C 350.778 332.980,351.070 332.800,351.400 332.800 C 351.733 332.800,352.000 332.444,352.000 332.000 C 352.000 331.467,352.267 331.200,352.800 331.200 C 353.244 331.200,353.600 330.933,353.600 330.600 C 353.600 330.270,353.870 330.000,354.200 330.000 C 354.533 330.000,354.800 329.644,354.800 329.200 C 354.800 328.760,355.000 328.400,355.244 328.400 C 356.121 328.400,357.586 326.591,357.593 325.500 C 357.598 324.782,357.813 324.400,358.213 324.400 C 358.549 324.400,358.941 324.099,359.082 323.731 C 359.410 322.876,360.679 321.600,361.200 321.600 C 361.420 321.600,361.600 321.043,361.600 320.363 C 361.600 319.462,361.817 319.068,362.400 318.916 C 362.843 318.800,363.200 318.370,363.200 317.953 C 363.200 317.539,363.470 317.200,363.800 317.200 C 364.130 317.200,364.400 316.951,364.400 316.647 C 364.400 316.342,364.760 315.999,365.200 315.884 C 365.783 315.732,366.000 315.338,366.000 314.437 C 366.000 313.604,366.196 313.200,366.600 313.200 C 366.933 313.200,367.200 312.844,367.200 312.400 C 367.200 311.867,367.467 311.600,368.000 311.600 C 368.650 311.600,368.800 311.333,368.800 310.176 C 368.800 309.269,368.955 308.849,369.227 309.017 C 369.462 309.162,369.748 308.919,369.864 308.477 C 369.979 308.035,370.417 307.584,370.837 307.474 C 371.380 307.332,371.600 306.919,371.600 306.037 C 371.600 305.204,371.796 304.800,372.200 304.800 C 372.619 304.800,372.800 304.378,372.800 303.400 C 372.800 302.267,372.952 302.000,373.600 302.000 C 374.052 302.000,374.400 301.733,374.400 301.387 C 374.400 301.051,374.670 300.671,375.000 300.545 C 375.334 300.416,375.600 299.822,375.600 299.204 C 375.600 298.430,375.842 298.030,376.400 297.884 C 376.983 297.732,377.200 297.338,377.200 296.437 C 377.200 295.604,377.396 295.200,377.800 295.200 C 378.215 295.200,378.400 294.783,378.400 293.847 C 378.400 292.830,378.599 292.441,379.200 292.284 C 379.783 292.132,380.000 291.738,380.000 290.837 C 380.000 290.004,380.196 289.600,380.600 289.600 C 381.015 289.600,381.200 289.183,381.200 288.247 C 381.200 287.213,381.396 286.842,382.030 286.676 C 382.532 286.545,382.830 286.171,382.784 285.730 C 382.646 284.410,382.792 284.000,383.400 284.000 C 383.833 284.000,384.000 283.557,384.000 282.413 C 384.000 281.093,384.113 280.868,384.669 281.082 C 385.173 281.275,385.276 281.176,385.087 280.682 C 384.948 280.321,385.007 279.919,385.217 279.789 C 385.428 279.659,385.600 279.023,385.600 278.376 C 385.600 277.597,385.803 277.200,386.200 277.200 C 386.619 277.200,386.800 276.778,386.800 275.800 C 386.800 274.822,386.981 274.400,387.400 274.400 C 387.861 274.400,388.000 273.889,388.000 272.200 C 388.000 270.267,388.097 270.000,388.800 270.000 C 389.491 270.000,389.600 269.733,389.600 268.043 C 389.600 266.672,389.780 266.017,390.200 265.855 C 390.623 265.693,390.800 265.032,390.800 263.613 C 390.800 261.867,390.906 261.600,391.600 261.600 C 392.293 261.600,392.400 261.333,392.400 259.600 C 392.400 258.089,392.547 257.600,393.000 257.600 C 393.452 257.600,393.600 257.114,393.600 255.623 C 393.600 254.167,393.792 253.508,394.329 253.123 C 394.858 252.744,395.085 251.996,395.153 250.409 C 395.205 249.204,395.462 248.085,395.724 247.922 C 396.281 247.576,396.294 247.492,396.354 243.700 C 396.395 241.102,396.482 240.800,397.184 240.800 C 397.895 240.800,397.980 240.471,398.084 237.300 C 398.168 234.761,398.337 233.827,398.700 233.900 C 399.078 233.976,399.200 232.827,399.200 229.200 C 399.200 226.267,399.356 224.400,399.600 224.400 C 399.862 224.400,400.000 216.000,400.000 200.000 C 400.000 184.000,399.862 175.600,399.600 175.600 C 399.356 175.600,399.200 173.733,399.200 170.800 C 399.200 167.173,399.078 166.024,398.700 166.100 C 398.337 166.173,398.168 165.239,398.084 162.700 C 397.980 159.529,397.895 159.200,397.184 159.200 C 396.468 159.200,395.949 155.211,396.381 153.015 C 396.422 152.804,396.184 152.431,395.851 152.188 C 395.464 151.905,395.212 150.962,395.153 149.573 C 395.085 148.003,394.857 147.255,394.329 146.877 C 393.792 146.492,393.600 145.833,393.600 144.377 C 393.600 142.886,393.452 142.400,393.000 142.400 C 392.547 142.400,392.400 141.911,392.400 140.400 C 392.400 138.667,392.293 138.400,391.600 138.400 C 390.906 138.400,390.800 138.133,390.800 136.387 C 390.800 134.968,390.623 134.307,390.200 134.145 C 389.780 133.983,389.600 133.328,389.600 131.957 C 389.600 130.267,389.491 130.000,388.800 130.000 C 388.097 130.000,388.000 129.733,388.000 127.800 C 388.000 126.111,387.861 125.600,387.400 125.600 C 386.981 125.600,386.800 125.178,386.800 124.200 C 386.800 123.222,386.619 122.800,386.200 122.800 C 385.803 122.800,385.600 122.403,385.600 121.624 C 385.600 120.977,385.428 120.341,385.217 120.211 C 385.007 120.081,384.948 119.679,385.087 119.318 C 385.276 118.824,385.173 118.725,384.669 118.918 C 384.113 119.132,384.000 118.907,384.000 117.587 C 384.000 116.443,383.833 116.000,383.400 116.000 C 382.792 116.000,382.646 115.590,382.784 114.270 C 382.830 113.829,382.532 113.455,382.030 113.324 C 381.396 113.158,381.200 112.787,381.200 111.753 C 381.200 110.817,381.015 110.400,380.600 110.400 C 380.196 110.400,380.000 109.996,380.000 109.163 C 380.000 108.262,379.783 107.868,379.200 107.716 C 378.599 107.559,378.400 107.170,378.400 106.153 C 378.400 105.217,378.215 104.800,377.800 104.800 C 377.396 104.800,377.200 104.396,377.200 103.563 C 377.200 102.662,376.983 102.268,376.400 102.116 C 375.842 101.970,375.600 101.570,375.600 100.796 C 375.600 100.178,375.334 99.584,375.000 99.455 C 374.670 99.329,374.400 98.949,374.400 98.613 C 374.400 98.267,374.052 98.000,373.600 98.000 C 372.952 98.000,372.800 97.733,372.800 96.600 C 372.800 95.622,372.619 95.200,372.200 95.200 C 371.796 95.200,371.600 94.796,371.600 93.963 C 371.600 93.081,371.380 92.668,370.837 92.526 C 370.417 92.416,369.979 91.965,369.864 91.523 C 369.748 91.081,369.462 90.838,369.227 90.983 C 368.955 91.151,368.800 90.731,368.800 89.824 C 368.800 88.667,368.650 88.400,368.000 88.400 C 367.467 88.400,367.200 88.133,367.200 87.600 C 367.200 87.156,366.933 86.800,366.600 86.800 C 366.196 86.800,366.000 86.396,366.000 85.563 C 366.000 84.662,365.783 84.268,365.200 84.116 C 364.760 84.001,364.400 83.658,364.400 83.353 C 364.400 83.049,364.130 82.800,363.800 82.800 C 363.470 82.800,363.200 82.461,363.200 82.047 C 363.200 81.630,362.843 81.200,362.400 81.084 C 361.817 80.932,361.600 80.538,361.600 79.637 C 361.600 78.957,361.420 78.400,361.200 78.400 C 360.679 78.400,359.410 77.124,359.082 76.269 C 358.941 75.901,358.549 75.600,358.213 75.600 C 357.813 75.600,357.598 75.218,357.593 74.500 C 357.586 73.409,356.121 71.600,355.244 71.600 C 355.000 71.600,354.800 71.240,354.800 70.800 C 354.800 70.356,354.533 70.000,354.200 70.000 C 353.870 70.000,353.600 69.730,353.600 69.400 C 353.600 69.067,353.244 68.800,352.800 68.800 C 352.267 68.800,352.000 68.533,352.000 68.000 C 352.000 67.556,351.733 67.200,351.400 67.200 C 351.070 67.200,350.778 67.020,350.750 66.800 C 350.723 66.580,350.655 66.220,350.600 66.000 C 350.545 65.780,350.478 65.420,350.450 65.200 C 350.423 64.980,350.130 64.800,349.800 64.800 C 349.259 64.800,349.022 64.325,349.153 63.500 C 349.179 63.335,348.930 63.200,348.600 63.200 C 348.270 63.200,348.000 62.930,348.000 62.600 C 348.000 62.267,347.644 62.000,347.200 62.000 C 346.659 62.000,346.400 61.733,346.400 61.176 C 346.400 60.695,346.223 60.462,345.973 60.617 C 345.738 60.762,345.447 60.503,345.326 60.040 C 345.201 59.562,344.782 59.200,344.353 59.200 C 343.867 59.200,343.600 58.917,343.600 58.400 C 343.600 57.956,343.333 57.600,343.000 57.600 C 342.670 57.600,342.400 57.330,342.400 57.000 C 342.400 56.667,342.044 56.400,341.600 56.400 C 341.083 56.400,340.800 56.133,340.800 55.647 C 340.800 55.218,340.438 54.799,339.960 54.674 C 339.497 54.553,339.238 54.262,339.383 54.027 C 339.538 53.777,339.305 53.600,338.824 53.600 C 338.267 53.600,338.000 53.341,338.000 52.800 C 338.000 52.356,337.733 52.000,337.400 52.000 C 337.070 52.000,336.800 51.730,336.800 51.400 C 336.800 51.070,336.665 50.821,336.500 50.847 C 335.675 50.978,335.200 50.741,335.200 50.200 C 335.200 49.870,335.020 49.578,334.800 49.550 C 334.580 49.523,334.220 49.455,334.000 49.400 C 333.780 49.345,333.420 49.278,333.200 49.250 C 332.980 49.223,332.800 48.930,332.800 48.600 C 332.800 48.267,332.444 48.000,332.000 48.000 C 331.467 48.000,331.200 47.733,331.200 47.200 C 331.200 46.756,330.933 46.400,330.600 46.400 C 330.270 46.400,330.000 46.130,330.000 45.800 C 330.000 45.467,329.644 45.200,329.200 45.200 C 328.760 45.200,328.397 44.975,328.393 44.700 C 328.381 43.840,326.535 42.400,325.444 42.400 C 324.773 42.400,324.400 42.181,324.400 41.787 C 324.400 41.451,324.099 41.059,323.731 40.918 C 322.876 40.590,321.600 39.321,321.600 38.800 C 321.600 38.580,321.043 38.400,320.363 38.400 C 319.462 38.400,319.068 38.183,318.916 37.600 C 318.800 37.157,318.370 36.800,317.953 36.800 C 317.539 36.800,317.200 36.530,317.200 36.200 C 317.200 35.870,316.951 35.600,316.647 35.600 C 316.342 35.600,315.999 35.240,315.884 34.800 C 315.732 34.217,315.338 34.000,314.437 34.000 C 313.604 34.000,313.200 33.804,313.200 33.400 C 313.200 33.067,312.844 32.800,312.400 32.800 C 311.867 32.800,311.600 32.533,311.600 32.000 C 311.600 31.350,311.333 31.200,310.176 31.200 C 309.269 31.200,308.849 31.045,309.017 30.773 C 309.162 30.538,308.919 30.252,308.477 30.136 C 308.035 30.021,307.584 29.583,307.474 29.163 C 307.332 28.620,306.919 28.400,306.037 28.400 C 305.204 28.400,304.800 28.204,304.800 27.800 C 304.800 27.381,304.378 27.200,303.400 27.200 C 302.267 27.200,302.000 27.048,302.000 26.400 C 302.000 25.948,301.733 25.600,301.387 25.600 C 301.051 25.600,300.671 25.330,300.545 25.000 C 300.416 24.666,299.822 24.400,299.204 24.400 C 298.430 24.400,298.030 24.158,297.884 23.600 C 297.732 23.017,297.338 22.800,296.437 22.800 C 295.604 22.800,295.200 22.604,295.200 22.200 C 295.200 21.785,294.783 21.600,293.847 21.600 C 292.830 21.600,292.441 21.401,292.284 20.800 C 292.132 20.217,291.738 20.000,290.837 20.000 C 290.004 20.000,289.600 19.804,289.600 19.400 C 289.600 18.985,289.183 18.800,288.247 18.800 C 287.213 18.800,286.842 18.604,286.676 17.970 C 286.545 17.468,286.171 17.170,285.730 17.216 C 284.410 17.354,284.000 17.208,284.000 16.600 C 284.000 16.167,283.557 16.000,282.413 16.000 C 281.093 16.000,280.868 15.887,281.082 15.331 C 281.275 14.827,281.176 14.724,280.682 14.913 C 280.321 15.052,279.919 14.993,279.789 14.783 C 279.659 14.572,279.023 14.400,278.376 14.400 C 277.597 14.400,277.200 14.197,277.200 13.800 C 277.200 13.381,276.778 13.200,275.800 13.200 C 274.822 13.200,274.400 13.019,274.400 12.600 C 274.400 12.139,273.889 12.000,272.200 12.000 C 270.267 12.000,270.000 11.903,270.000 11.200 C 270.000 10.509,269.733 10.400,268.043 10.400 C 266.672 10.400,266.017 10.220,265.855 9.800 C 265.693 9.377,265.032 9.200,263.613 9.200 C 261.867 9.200,261.600 9.094,261.600 8.400 C 261.600 7.707,261.333 7.600,259.600 7.600 C 258.089 7.600,257.600 7.453,257.600 7.000 C 257.600 6.548,257.114 6.400,255.623 6.400 C 254.167 6.400,253.508 6.208,253.123 5.671 C 252.745 5.143,251.997 4.915,250.427 4.847 C 249.038 4.788,248.095 4.536,247.812 4.149 C 247.569 3.816,247.196 3.578,246.985 3.619 C 244.789 4.051,240.800 3.532,240.800 2.816 C 240.800 2.105,240.471 2.020,237.300 1.916 C 234.761 1.832,233.827 1.663,233.900 1.300 C 233.976 0.922,232.827 0.800,229.200 0.800 C 226.267 0.800,224.400 0.644,224.400 0.400 C 224.400 0.138,216.000 0.000,200.000 0.000 C 184.000 0.000,175.600 0.138,175.600 0.400 M152.627 107.050 C 154.590 109.098,155.218 112.823,153.800 114.000 C 153.470 114.274,153.200 114.712,153.200 114.974 C 153.200 116.561,149.411 117.849,143.200 118.372 C 138.614 118.759,134.931 119.538,132.540 120.626 C 131.846 120.942,131.101 121.200,130.884 121.200 C 126.185 121.200,110.787 134.175,107.386 141.000 C 107.057 141.660,106.637 142.470,106.453 142.800 C 106.268 143.130,105.834 144.030,105.487 144.800 C 103.868 148.395,103.209 150.149,102.962 151.517 C 102.815 152.333,102.539 153.302,102.349 153.671 C 100.773 156.728,99.986 190.000,101.490 190.000 C 101.869 190.000,102.724 189.409,103.390 188.686 C 104.055 187.963,105.590 186.569,106.800 185.588 C 108.010 184.607,109.207 183.623,109.460 183.402 C 112.989 180.315,122.571 174.800,124.402 174.800 C 124.632 174.800,125.844 174.440,127.096 174.000 C 128.348 173.560,129.852 173.200,130.437 173.200 C 131.023 173.200,132.199 172.898,133.051 172.528 C 135.349 171.532,153.051 171.532,155.349 172.528 C 156.201 172.898,157.371 173.201,157.949 173.203 C 158.900 173.205,163.806 174.681,165.800 175.564 C 168.367 176.700,172.982 179.035,173.358 179.387 C 173.601 179.614,174.610 180.340,175.600 181.000 C 178.742 183.094,180.654 184.674,183.833 187.800 C 186.516 190.437,190.800 195.713,190.800 196.379 C 190.800 196.610,190.970 196.800,191.178 196.800 C 191.386 196.800,191.791 197.226,192.078 197.747 C 193.414 200.171,196.400 206.370,196.400 206.719 C 196.400 206.933,196.669 207.624,196.998 208.254 C 197.326 208.884,197.596 209.814,197.598 210.320 C 197.599 210.826,197.851 211.726,198.158 212.320 C 198.465 212.914,198.903 214.480,199.131 215.800 C 199.359 217.120,199.756 219.068,200.012 220.128 C 200.608 222.599,200.397 236.033,199.749 236.839 C 199.502 237.148,199.172 238.480,199.017 239.800 C 198.862 241.120,198.480 242.599,198.168 243.086 C 197.855 243.573,197.600 244.356,197.600 244.825 C 197.600 245.295,197.357 246.246,197.060 246.940 C 196.763 247.633,196.107 249.280,195.602 250.600 C 194.317 253.962,191.122 259.177,188.200 262.680 C 184.339 267.309,181.189 270.394,178.222 272.453 C 177.005 273.297,175.109 274.620,174.009 275.394 C 172.908 276.167,171.924 276.800,171.822 276.800 C 171.719 276.800,170.772 277.298,169.718 277.906 C 166.450 279.791,159.197 282.400,157.224 282.400 C 156.580 282.400,155.545 282.600,154.926 282.845 C 153.140 283.550,144.395 283.988,139.488 283.617 C 130.502 282.939,124.629 281.202,116.438 276.800 C 114.010 275.495,107.575 270.642,104.774 268.002 C 101.021 264.466,100.905 264.427,100.579 266.600 C 99.721 272.322,93.251 274.146,89.200 269.807 L 88.200 268.736 88.084 215.468 C 87.956 156.595,88.260 148.961,90.842 146.220 C 91.039 146.011,91.206 145.561,91.214 145.220 C 91.221 144.879,91.575 143.880,92.000 143.000 C 92.425 142.120,92.779 141.197,92.786 140.949 C 92.794 140.701,93.070 140.274,93.400 140.000 C 93.730 139.726,94.000 139.177,94.000 138.780 C 94.000 138.382,94.227 137.819,94.505 137.529 C 94.782 137.238,95.239 136.550,95.521 136.000 C 96.366 134.346,99.875 128.871,100.392 128.400 C 100.512 128.290,101.419 127.217,102.405 126.015 C 105.715 121.986,114.072 114.800,115.449 114.800 C 115.752 114.800,116.000 114.616,116.000 114.390 C 116.000 114.165,116.405 113.795,116.900 113.570 C 117.395 113.344,118.520 112.730,119.400 112.207 C 121.597 110.899,125.196 109.200,125.768 109.200 C 126.028 109.200,126.411 109.043,126.620 108.852 C 127.137 108.379,132.538 106.786,135.000 106.381 C 136.100 106.200,137.630 105.879,138.400 105.667 C 139.170 105.455,142.287 105.263,145.327 105.241 L 150.855 105.200 152.627 107.050 M283.435 106.608 C 287.067 109.583,285.977 115.825,281.576 117.261 C 280.819 117.509,277.860 117.941,275.000 118.222 C 269.860 118.727,266.189 119.511,263.740 120.626 C 263.046 120.942,262.338 121.200,262.166 121.200 C 261.874 121.200,260.138 121.957,256.806 123.539 C 250.788 126.395,242.739 134.056,239.000 140.488 C 236.965 143.988,233.600 151.431,233.600 152.431 C 233.600 152.876,233.290 153.816,232.912 154.520 C 232.066 156.096,231.536 191.200,232.359 191.200 C 232.602 191.200,232.800 191.064,232.800 190.899 C 232.800 190.227,237.037 186.147,240.800 183.195 C 245.744 179.317,254.744 174.400,256.899 174.400 C 257.231 174.400,258.149 174.130,258.938 173.800 C 259.728 173.470,260.898 173.200,261.538 173.200 C 262.179 173.200,263.399 172.896,264.251 172.523 C 266.514 171.535,284.248 171.549,286.487 172.541 C 287.305 172.904,288.475 173.201,289.087 173.203 C 290.080 173.205,292.447 173.932,297.400 175.754 C 298.280 176.078,299.810 176.803,300.800 177.366 C 301.790 177.929,302.870 178.516,303.200 178.670 C 307.099 180.492,317.359 189.355,319.533 192.778 C 319.890 193.340,320.282 193.890,320.405 194.000 C 320.643 194.214,323.534 198.544,324.200 199.685 C 325.974 202.725,328.198 207.701,328.990 210.400 C 329.345 211.610,329.796 213.140,329.993 213.800 C 332.850 223.407,331.480 241.262,327.254 249.491 C 327.054 249.881,326.375 251.242,325.745 252.515 C 321.082 261.942,314.292 269.600,310.596 269.600 C 304.032 269.600,302.111 262.430,307.200 256.926 C 311.997 251.738,315.514 245.564,316.607 240.413 C 316.769 239.650,317.051 238.750,317.234 238.413 C 318.896 235.352,318.723 221.936,316.945 216.000 C 315.711 211.883,311.988 203.446,311.262 203.123 C 311.110 203.055,310.571 202.460,310.064 201.800 C 305.761 196.199,300.809 192.077,294.994 189.257 C 293.017 188.298,290.922 187.263,290.338 186.957 C 289.754 186.651,288.882 186.400,288.400 186.400 C 287.918 186.400,287.046 186.142,286.462 185.826 C 282.837 183.867,267.643 183.874,263.938 185.837 C 263.354 186.147,262.579 186.400,262.216 186.400 C 261.594 186.400,260.231 186.948,256.000 188.899 C 250.437 191.464,243.280 197.503,240.155 202.270 C 239.315 203.551,238.530 204.690,238.410 204.800 C 238.290 204.910,237.659 206.080,237.009 207.400 C 236.358 208.720,235.685 209.860,235.513 209.933 C 235.341 210.007,235.194 210.367,235.186 210.733 C 235.179 211.100,234.825 212.120,234.400 213.000 C 233.975 213.880,233.621 214.924,233.614 215.320 C 233.606 215.716,233.289 216.616,232.909 217.320 C 231.864 219.254,231.858 236.511,232.902 237.989 C 233.286 238.533,233.600 239.389,233.600 239.890 C 233.600 240.392,233.960 241.475,234.400 242.296 C 234.840 243.116,235.200 244.095,235.200 244.470 C 235.200 244.846,235.369 245.257,235.575 245.384 C 235.781 245.512,236.430 246.631,237.017 247.872 C 238.753 251.542,242.455 256.565,245.359 259.191 C 246.666 260.372,247.986 261.419,251.800 264.298 C 253.332 265.455,262.140 269.200,263.328 269.200 C 263.719 269.200,264.532 269.455,265.134 269.766 C 265.773 270.096,268.218 270.450,271.014 270.616 C 273.646 270.773,275.980 271.034,276.200 271.195 C 276.420 271.357,277.050 271.606,277.600 271.747 C 283.864 273.360,282.594 282.858,276.000 283.717 C 271.380 284.319,259.471 282.382,254.600 280.236 C 250.676 278.507,248.453 277.362,246.502 276.064 C 245.292 275.259,243.875 274.365,243.351 274.078 C 242.828 273.791,242.400 273.386,242.400 273.178 C 242.400 272.970,242.216 272.800,241.991 272.800 C 241.285 272.800,236.686 268.963,234.601 266.633 C 232.155 263.901,232.247 263.901,231.591 266.639 C 230.136 272.702,223.434 274.330,220.080 269.434 L 219.200 268.150 219.200 212.726 C 219.200 164.481,219.278 157.080,219.800 155.600 C 220.130 154.665,220.400 153.274,220.400 152.510 C 220.400 151.746,220.664 150.554,220.986 149.860 C 221.308 149.167,221.746 147.880,221.958 147.000 C 222.955 142.876,225.187 137.819,227.662 134.080 C 228.288 133.134,228.800 132.252,228.800 132.121 C 228.800 131.871,231.297 128.675,232.375 127.545 C 232.719 127.185,233.540 126.197,234.200 125.350 C 236.713 122.125,239.851 119.380,246.034 115.000 C 248.699 113.112,255.028 109.600,255.766 109.600 C 255.938 109.600,256.646 109.339,257.340 109.021 C 259.581 107.991,263.402 106.847,266.033 106.419 C 267.445 106.189,269.140 105.836,269.800 105.635 C 270.460 105.433,273.411 105.253,276.359 105.234 L 281.718 105.200 283.435 106.608 M140.283 184.382 C 139.668 184.579,137.958 184.866,136.483 185.020 C 135.007 185.174,133.314 185.548,132.720 185.850 C 132.126 186.153,131.254 186.400,130.782 186.400 C 130.310 186.400,129.446 186.654,128.862 186.965 C 128.278 187.276,126.271 188.285,124.402 189.209 C 117.196 192.769,106.000 203.546,106.000 206.924 C 106.000 207.198,105.768 207.777,105.485 208.211 C 101.425 214.434,99.665 230.493,102.198 238.200 C 102.487 239.080,102.837 240.340,102.976 241.000 C 103.114 241.660,103.472 242.740,103.771 243.400 C 104.069 244.060,104.704 245.500,105.182 246.600 C 105.659 247.700,106.219 248.870,106.426 249.200 C 106.633 249.530,106.963 250.167,107.159 250.616 C 107.356 251.065,107.805 251.673,108.158 251.965 C 108.511 252.258,108.800 252.639,108.800 252.810 C 108.800 253.181,110.686 255.369,113.227 257.947 C 123.077 267.937,135.907 272.215,150.600 270.406 C 153.696 270.025,157.989 268.925,158.580 268.362 C 158.789 268.163,159.239 267.997,159.580 267.992 C 162.780 267.953,174.558 259.643,177.710 255.200 C 180.483 251.290,182.212 248.565,182.786 247.200 C 183.017 246.650,183.474 245.722,183.803 245.138 C 184.131 244.554,184.400 243.811,184.400 243.487 C 184.400 243.163,184.670 242.674,185.000 242.400 C 185.330 242.126,185.600 241.481,185.600 240.966 C 185.600 240.451,185.981 239.078,186.446 237.915 C 187.562 235.124,187.740 220.166,186.682 218.045 C 186.343 217.365,185.949 216.221,185.807 215.504 C 185.148 212.173,181.183 204.663,177.838 200.408 C 175.433 197.349,172.962 194.800,172.400 194.800 C 172.180 194.800,172.000 194.645,172.000 194.457 C 172.000 194.147,168.625 191.714,166.600 190.563 C 163.958 189.062,159.960 187.277,156.400 186.011 C 152.841 184.745,142.431 183.692,140.283 184.382 " stroke="none" fill="#f3f3f3" fill-rule="evenodd"></path><path id="path2" d="M138.400 105.667 C 137.630 105.879,136.100 106.200,135.000 106.381 C 132.538 106.786,127.137 108.379,126.620 108.852 C 126.411 109.043,126.028 109.200,125.768 109.200 C 125.196 109.200,121.597 110.899,119.400 112.207 C 118.520 112.730,117.395 113.344,116.900 113.570 C 116.405 113.795,116.000 114.165,116.000 114.390 C 116.000 114.616,115.752 114.800,115.449 114.800 C 114.072 114.800,105.715 121.986,102.405 126.015 C 101.419 127.217,100.512 128.290,100.392 128.400 C 99.875 128.871,96.366 134.346,95.521 136.000 C 95.239 136.550,94.782 137.238,94.505 137.529 C 94.227 137.819,94.000 138.382,94.000 138.780 C 94.000 139.177,93.730 139.726,93.400 140.000 C 93.070 140.274,92.794 140.701,92.786 140.949 C 92.779 141.197,92.425 142.120,92.000 143.000 C 91.575 143.880,91.221 144.879,91.214 145.220 C 91.206 145.561,91.039 146.011,90.842 146.220 C 88.260 148.961,87.956 156.595,88.084 215.468 L 88.200 268.736 89.200 269.807 C 93.251 274.146,99.721 272.322,100.579 266.600 C 100.905 264.427,101.021 264.466,104.774 268.002 C 107.575 270.642,114.010 275.495,116.438 276.800 C 124.629 281.202,130.502 282.939,139.488 283.617 C 144.395 283.988,153.140 283.550,154.926 282.845 C 155.545 282.600,156.580 282.400,157.224 282.400 C 159.197 282.400,166.450 279.791,169.718 277.906 C 170.772 277.298,171.719 276.800,171.822 276.800 C 171.924 276.800,172.908 276.167,174.009 275.394 C 175.109 274.620,177.005 273.297,178.222 272.453 C 181.189 270.394,184.339 267.309,188.200 262.680 C 191.122 259.177,194.317 253.962,195.602 250.600 C 196.107 249.280,196.763 247.633,197.060 246.940 C 197.357 246.246,197.600 245.295,197.600 244.825 C 197.600 244.356,197.855 243.573,198.168 243.086 C 198.480 242.599,198.862 241.120,199.017 239.800 C 199.172 238.480,199.502 237.148,199.749 236.839 C 200.397 236.033,200.608 222.599,200.012 220.128 C 199.756 219.068,199.359 217.120,199.131 215.800 C 198.903 214.480,198.465 212.914,198.158 212.320 C 197.851 211.726,197.599 210.826,197.598 210.320 C 197.596 209.814,197.326 208.884,196.998 208.254 C 196.669 207.624,196.400 206.933,196.400 206.719 C 196.400 206.370,193.414 200.171,192.078 197.747 C 191.791 197.226,191.386 196.800,191.178 196.800 C 190.970 196.800,190.800 196.610,190.800 196.379 C 190.800 195.713,186.516 190.437,183.833 187.800 C 180.654 184.674,178.742 183.094,175.600 181.000 C 174.610 180.340,173.601 179.614,173.358 179.387 C 172.982 179.035,168.367 176.700,165.800 175.564 C 163.806 174.681,158.900 173.205,157.949 173.203 C 157.371 173.201,156.251 172.930,155.462 172.600 C 154.666 172.268,152.994 172.025,151.713 172.056 L 149.400 172.113 151.400 172.407 C 196.753 179.081,215.730 232.510,184.612 265.912 C 163.160 288.937,127.145 289.147,104.029 266.382 C 100.327 262.735,100.087 262.729,100.028 266.286 C 99.920 272.797,89.556 273.242,88.613 266.776 C 87.807 261.258,88.650 157.429,89.533 153.446 C 92.378 140.604,98.448 129.901,107.675 121.456 C 110.699 118.689,112.345 117.416,117.119 114.152 C 125.871 108.168,146.318 103.506,151.033 106.420 C 156.731 109.942,154.243 116.450,146.907 117.210 C 141.625 117.758,137.562 118.373,136.000 118.861 C 127.545 121.508,123.939 123.310,118.600 127.559 C 108.969 135.223,103.277 144.766,100.920 157.200 C 100.163 161.194,99.802 191.132,100.502 191.835 C 100.668 192.001,102.288 190.709,104.102 188.963 C 114.502 178.954,123.824 174.305,137.600 172.258 C 138.150 172.176,137.649 172.084,136.487 172.054 C 135.325 172.025,133.728 172.270,132.938 172.600 C 132.149 172.930,131.023 173.200,130.437 173.200 C 129.852 173.200,128.348 173.560,127.096 174.000 C 125.844 174.440,124.632 174.800,124.402 174.800 C 122.571 174.800,112.989 180.315,109.460 183.402 C 109.207 183.623,108.010 184.607,106.800 185.588 C 105.590 186.569,104.055 187.963,103.390 188.686 C 102.724 189.409,101.869 190.000,101.490 190.000 C 99.986 190.000,100.773 156.728,102.349 153.671 C 102.539 153.302,102.815 152.333,102.962 151.517 C 103.209 150.149,103.868 148.395,105.487 144.800 C 105.834 144.030,106.268 143.130,106.453 142.800 C 106.637 142.470,107.057 141.660,107.386 141.000 C 110.787 134.175,126.185 121.200,130.884 121.200 C 131.101 121.200,131.846 120.942,132.540 120.626 C 134.931 119.538,138.614 118.759,143.200 118.372 C 149.411 117.849,153.200 116.561,153.200 114.974 C 153.200 114.712,153.470 114.274,153.800 114.000 C 155.218 112.823,154.590 109.098,152.627 107.050 L 150.855 105.200 145.327 105.241 C 142.287 105.263,139.170 105.455,138.400 105.667 M269.800 105.635 C 269.140 105.836,267.445 106.189,266.033 106.419 C 263.402 106.847,259.581 107.991,257.340 109.021 C 256.646 109.339,255.938 109.600,255.766 109.600 C 252.704 109.600,238.241 120.163,234.200 125.350 C 233.540 126.197,232.719 127.185,232.375 127.545 C 231.297 128.675,228.800 131.871,228.800 132.121 C 228.800 132.252,228.288 133.134,227.662 134.080 C 225.187 137.819,222.955 142.876,221.958 147.000 C 221.746 147.880,221.308 149.167,220.986 149.860 C 220.664 150.554,220.400 151.746,220.400 152.510 C 220.400 153.274,220.130 154.665,219.800 155.600 C 219.278 157.080,219.200 164.481,219.200 212.726 L 219.200 268.150 220.080 269.434 C 223.434 274.330,230.136 272.702,231.591 266.639 C 232.247 263.901,232.155 263.901,234.601 266.633 C 236.686 268.963,241.285 272.800,241.991 272.800 C 242.216 272.800,242.400 272.970,242.400 273.178 C 242.400 273.386,242.828 273.791,243.351 274.078 C 243.875 274.365,245.292 275.259,246.502 276.064 C 248.453 277.362,250.676 278.507,254.600 280.236 C 259.471 282.382,271.380 284.319,276.000 283.717 C 282.594 282.858,283.864 273.360,277.600 271.747 C 277.050 271.606,276.420 271.357,276.200 271.195 C 275.980 271.034,273.646 270.773,271.014 270.616 C 268.218 270.450,265.773 270.096,265.134 269.766 C 264.532 269.455,263.719 269.200,263.328 269.200 C 262.140 269.200,253.332 265.455,251.800 264.298 C 247.986 261.419,246.666 260.372,245.359 259.191 C 242.455 256.565,238.753 251.542,237.017 247.872 C 236.430 246.631,235.781 245.512,235.575 245.384 C 235.369 245.257,235.200 244.846,235.200 244.470 C 235.200 244.095,234.840 243.116,234.400 242.296 C 233.960 241.475,233.600 240.387,233.600 239.878 C 233.600 239.369,233.336 238.604,233.013 238.176 C 231.800 236.574,232.950 240.434,235.223 245.600 C 241.404 259.647,254.743 269.450,270.000 271.158 C 272.310 271.416,274.973 271.724,275.917 271.841 C 280.745 272.440,282.795 278.714,279.162 281.771 C 277.511 283.160,276.725 283.304,271.925 283.094 C 257.512 282.465,245.703 276.958,234.416 265.602 L 231.431 262.600 231.005 265.679 C 230.186 271.601,224.989 273.631,221.104 269.547 L 219.600 267.966 219.600 213.755 C 219.600 152.953,219.459 156.017,222.689 146.400 C 226.631 134.658,235.060 123.101,243.984 117.200 C 244.483 116.870,245.659 116.024,246.596 115.320 C 255.538 108.602,277.052 103.218,282.211 106.407 C 286.743 109.208,285.447 116.335,280.293 116.958 C 269.797 118.226,267.940 118.558,264.035 119.864 C 251.122 124.185,240.736 133.684,235.458 146.000 C 234.845 147.430,234.189 148.960,234.000 149.400 C 231.701 154.751,231.117 160.906,231.272 178.187 L 231.400 192.574 236.027 188.187 C 245.901 178.825,254.275 174.692,268.000 172.407 L 269.800 172.107 267.687 172.053 C 266.525 172.024,264.928 172.270,264.138 172.600 C 263.349 172.930,262.179 173.200,261.538 173.200 C 260.898 173.200,259.728 173.470,258.938 173.800 C 258.149 174.130,257.231 174.400,256.899 174.400 C 254.744 174.400,245.744 179.317,240.800 183.195 C 237.037 186.147,232.800 190.227,232.800 190.899 C 232.800 191.064,232.602 191.200,232.359 191.200 C 231.536 191.200,232.066 156.096,232.912 154.520 C 233.290 153.816,233.600 152.876,233.600 152.431 C 233.600 151.431,236.965 143.988,239.000 140.488 C 242.739 134.056,250.788 126.395,256.806 123.539 C 260.138 121.957,261.874 121.200,262.166 121.200 C 262.338 121.200,263.046 120.942,263.740 120.626 C 266.189 119.511,269.860 118.727,275.000 118.222 C 277.860 117.941,280.819 117.509,281.576 117.261 C 285.977 115.825,287.067 109.583,283.435 106.608 L 281.718 105.200 276.359 105.234 C 273.411 105.253,270.460 105.433,269.800 105.635 M141.916 171.897 C 143.299 171.975,145.459 171.974,146.716 171.895 C 147.972 171.816,146.840 171.752,144.200 171.753 C 141.560 171.753,140.532 171.818,141.916 171.897 M272.700 171.896 C 274.075 171.974,276.325 171.974,277.700 171.896 C 279.075 171.818,277.950 171.754,275.200 171.754 C 272.450 171.754,271.325 171.818,272.700 171.896 M282.400 172.400 C 299.983 175.268,312.219 182.967,321.793 197.190 C 334.119 215.500,333.930 240.511,321.326 258.914 C 314.981 268.179,310.932 270.622,307.020 267.544 C 303.821 265.028,304.008 261.271,307.521 257.477 C 311.193 253.512,312.306 251.910,314.608 247.275 C 321.585 233.225,320.041 212.873,311.193 202.242 C 303.735 193.281,300.021 190.379,291.400 186.780 C 260.959 174.072,226.845 200.982,231.717 233.860 C 232.175 236.953,232.200 236.645,232.209 227.860 C 232.216 219.857,232.311 218.426,232.909 217.320 C 233.289 216.616,233.606 215.716,233.614 215.320 C 233.621 214.924,233.975 213.880,234.400 213.000 C 234.825 212.120,235.179 211.100,235.186 210.733 C 235.194 210.367,235.341 210.007,235.513 209.933 C 235.685 209.860,236.358 208.720,237.009 207.400 C 237.659 206.080,238.290 204.910,238.410 204.800 C 238.530 204.690,239.315 203.551,240.155 202.270 C 243.280 197.503,250.437 191.464,256.000 188.899 C 260.231 186.948,261.594 186.400,262.216 186.400 C 262.579 186.400,263.354 186.147,263.938 185.837 C 267.643 183.874,282.837 183.867,286.462 185.826 C 287.046 186.142,287.918 186.400,288.400 186.400 C 288.882 186.400,289.754 186.651,290.338 186.957 C 290.922 187.263,293.017 188.298,294.994 189.257 C 300.809 192.077,305.761 196.199,310.064 201.800 C 310.571 202.460,311.110 203.055,311.262 203.123 C 311.988 203.446,315.711 211.883,316.945 216.000 C 318.723 221.936,318.896 235.352,317.234 238.413 C 317.051 238.750,316.769 239.650,316.607 240.413 C 315.514 245.564,311.997 251.738,307.200 256.926 C 302.111 262.430,304.032 269.600,310.596 269.600 C 314.292 269.600,321.082 261.942,325.745 252.515 C 326.375 251.242,327.054 249.881,327.254 249.491 C 331.480 241.262,332.850 223.407,329.993 213.800 C 329.796 213.140,329.345 211.610,328.990 210.400 C 328.198 207.701,325.974 202.725,324.200 199.685 C 323.534 198.544,320.643 194.214,320.405 194.000 C 320.282 193.890,319.890 193.340,319.533 192.778 C 317.359 189.355,307.099 180.492,303.200 178.670 C 302.870 178.516,301.790 177.929,300.800 177.366 C 299.810 176.803,298.280 176.078,297.400 175.754 C 292.447 173.932,290.080 173.205,289.087 173.203 C 288.475 173.201,287.328 172.930,286.538 172.600 C 285.749 172.270,284.089 172.024,282.851 172.053 L 280.600 172.107 282.400 172.400 M137.000 184.259 C 107.202 190.443,91.996 219.908,104.610 247.024 C 113.086 265.244,137.001 275.954,155.883 269.985 C 164.431 267.282,169.596 264.273,175.131 258.770 C 180.362 253.569,183.169 248.888,186.385 240.000 C 187.306 237.454,187.342 235.918,186.432 238.000 C 185.999 238.990,185.635 240.273,185.622 240.851 C 185.610 241.429,185.330 242.126,185.000 242.400 C 184.670 242.674,184.400 243.163,184.400 243.487 C 184.400 243.811,184.131 244.554,183.803 245.138 C 183.474 245.722,183.017 246.650,182.786 247.200 C 182.212 248.565,180.483 251.290,177.710 255.200 C 174.558 259.643,162.780 267.953,159.580 267.992 C 159.239 267.997,158.789 268.163,158.580 268.362 C 157.989 268.925,153.696 270.025,150.600 270.406 C 135.907 272.215,123.077 267.937,113.227 257.947 C 110.686 255.369,108.800 253.181,108.800 252.810 C 108.800 252.639,108.511 252.258,108.158 251.965 C 107.805 251.673,107.356 251.065,107.159 250.616 C 106.963 250.167,106.633 249.530,106.426 249.200 C 106.219 248.870,105.659 247.700,105.182 246.600 C 104.704 245.500,104.069 244.060,103.771 243.400 C 103.472 242.740,103.114 241.660,102.976 241.000 C 102.837 240.340,102.487 239.080,102.198 238.200 C 99.665 230.493,101.425 214.434,105.485 208.211 C 105.768 207.777,106.000 207.198,106.000 206.924 C 106.000 203.546,117.196 192.769,124.402 189.209 C 126.271 188.285,128.278 187.276,128.862 186.965 C 129.446 186.654,130.312 186.400,130.788 186.400 C 131.264 186.400,132.046 186.188,132.526 185.928 C 135.356 184.399,145.105 183.850,151.200 184.877 C 155.015 185.520,156.099 185.827,159.800 187.311 C 164.638 189.251,172.000 193.563,172.000 194.457 C 172.000 194.645,172.180 194.800,172.400 194.800 C 173.508 194.800,179.034 201.511,181.458 205.800 C 183.773 209.895,185.429 213.595,185.812 215.527 C 185.957 216.257,186.344 217.337,186.671 217.927 L 187.267 219.000 187.055 218.000 C 182.379 195.933,158.456 179.807,137.000 184.259 M187.342 227.600 L 187.347 236.200 187.907 232.063 C 188.388 228.510,188.388 227.298,187.902 223.463 L 187.337 219.000 187.342 227.600 " stroke="none" fill="#989898" fill-rule="evenodd"></path><path id="path3" d="M139.200 106.405 C 113.216 110.896,94.483 129.077,89.625 154.520 C 88.817 158.752,88.800 159.956,88.800 213.296 L 88.800 267.750 89.700 269.067 C 92.744 273.519,99.988 271.110,100.006 265.640 C 100.017 262.496,100.388 262.492,103.432 265.608 C 134.238 297.148,184.527 284.776,197.764 242.400 C 200.010 235.212,200.409 226.186,198.844 218.000 L 198.500 216.200 198.450 217.718 C 198.423 218.553,198.702 221.052,199.070 223.271 C 199.829 227.839,199.177 235.450,197.570 240.800 C 197.140 242.230,196.791 243.679,196.794 244.020 C 196.797 244.361,196.653 244.811,196.473 245.020 C 196.293 245.229,195.623 246.750,194.984 248.400 C 194.345 250.050,193.233 252.420,192.511 253.667 C 191.790 254.914,191.200 256.027,191.200 256.139 C 191.200 257.664,184.734 265.084,178.800 270.368 C 167.292 280.615,145.402 285.406,130.600 280.917 C 118.547 277.262,111.887 273.349,104.324 265.479 C 100.379 261.374,99.606 261.254,99.593 264.749 C 99.574 270.179,94.231 272.855,90.738 269.183 L 89.200 267.566 89.204 214.083 C 89.208 162.591,89.238 160.432,90.000 156.076 C 91.542 147.260,94.120 140.056,97.500 135.110 C 98.215 134.064,98.800 133.119,98.800 133.010 C 98.800 132.902,99.951 131.325,101.357 129.506 C 111.522 116.364,124.544 108.962,141.606 106.630 C 147.537 105.819,148.052 105.832,150.228 106.855 C 155.745 109.448,153.668 116.360,147.353 116.424 C 146.059 116.437,144.100 116.618,143.000 116.826 C 141.900 117.033,139.906 117.361,138.569 117.554 C 133.949 118.221,126.449 121.169,122.600 123.831 C 121.720 124.439,120.232 125.461,119.294 126.101 C 116.822 127.788,111.520 132.890,110.166 134.885 C 109.526 135.828,108.911 136.690,108.800 136.800 C 105.844 139.730,101.849 148.678,100.405 155.600 C 99.614 159.391,99.138 190.730,99.843 192.567 C 100.278 193.701,101.016 193.250,104.232 189.883 C 113.328 180.359,123.528 175.260,138.400 172.804 L 140.200 172.507 138.600 172.448 C 128.868 172.092,112.877 180.006,103.270 189.934 C 99.893 193.424,100.013 193.916,100.006 176.552 C 99.998 155.806,101.270 149.413,107.327 139.774 C 115.810 126.274,128.261 119.001,146.009 117.180 C 152.834 116.480,155.627 113.204,153.153 108.802 C 151.310 105.522,147.797 104.919,139.200 106.405 M270.800 106.277 C 244.656 110.339,225.004 129.765,220.395 156.102 C 219.639 160.423,219.608 162.692,219.604 213.877 L 219.600 267.154 220.448 268.592 C 223.426 273.638,230.330 271.664,230.800 265.631 C 231.064 262.235,231.359 262.248,234.836 265.817 C 243.816 275.031,253.520 280.139,266.340 282.400 C 277.034 284.285,281.271 282.642,280.712 276.826 C 280.353 273.085,279.359 272.489,271.960 271.576 C 239.430 267.561,221.975 236.941,235.834 208.200 C 251.328 176.069,297.865 175.465,314.365 207.179 C 323.038 223.851,319.626 246.616,306.632 258.774 C 302.166 262.953,307.088 270.248,312.886 268.043 C 315.324 267.117,322.406 257.938,325.272 251.994 C 339.437 222.605,325.220 187.013,294.800 175.705 C 289.864 173.870,283.331 172.376,280.600 172.459 L 279.000 172.507 280.800 172.815 C 289.347 174.277,293.729 175.564,299.200 178.220 C 302.055 179.605,306.773 182.294,307.200 182.778 C 307.310 182.903,308.120 183.532,309.000 184.177 C 312.663 186.859,322.000 197.266,322.000 198.665 C 322.000 198.814,322.257 199.221,322.571 199.569 C 323.358 200.439,325.365 204.550,326.509 207.636 C 333.001 225.146,330.750 244.038,320.375 259.116 C 314.430 267.756,310.298 269.938,306.900 266.231 C 304.650 263.775,305.183 261.092,308.655 257.400 C 319.814 245.534,323.021 226.556,316.571 210.556 C 315.785 208.606,315.016 206.919,314.863 206.806 C 314.709 206.693,314.364 206.150,314.095 205.600 C 311.710 200.723,304.712 193.346,299.000 189.688 C 296.004 187.769,290.822 185.742,284.400 183.977 C 277.050 181.957,263.904 183.587,255.600 187.548 C 246.483 191.897,237.691 201.108,234.362 209.800 C 232.705 214.124,231.600 217.517,231.600 218.277 C 231.600 218.763,231.330 220.198,231.000 221.465 C 230.240 224.381,230.227 230.616,230.973 233.774 C 231.289 235.108,231.659 237.051,231.796 238.091 C 231.934 239.131,232.195 240.074,232.378 240.186 C 232.560 240.299,232.836 241.068,232.991 241.896 C 233.146 242.723,233.498 243.850,233.772 244.400 C 238.512 253.899,239.861 255.770,245.944 261.282 C 253.344 267.987,264.678 272.409,274.446 272.402 C 280.586 272.398,282.759 279.368,277.460 282.071 C 272.665 284.518,251.154 278.975,245.169 273.751 C 244.821 273.448,244.366 273.200,244.157 273.200 C 243.949 273.200,243.496 272.885,243.151 272.500 C 242.806 272.115,241.281 270.777,239.762 269.528 C 238.243 268.278,235.846 266.065,234.436 264.611 C 231.157 261.228,230.663 261.292,230.400 265.135 C 229.969 271.447,223.423 273.171,220.644 267.706 C 220.041 266.520,219.998 261.954,220.136 212.906 C 220.291 157.643,220.393 154.155,221.926 151.326 C 222.187 150.846,222.400 150.063,222.400 149.587 C 222.400 149.111,222.643 148.154,222.940 147.460 C 223.237 146.767,223.890 145.120,224.391 143.800 C 229.409 130.567,241.153 117.843,253.672 112.077 C 263.638 107.488,277.870 104.815,281.350 106.880 C 286.387 109.869,284.618 116.369,278.753 116.424 C 277.349 116.437,275.300 116.618,274.200 116.826 C 273.100 117.033,271.089 117.363,269.732 117.559 C 254.797 119.711,239.414 132.692,233.894 147.800 C 230.831 156.185,230.600 158.201,230.600 176.594 C 230.600 195.871,230.279 194.912,235.118 190.106 C 236.859 188.377,239.344 186.070,240.641 184.981 C 241.939 183.891,243.090 182.895,243.200 182.766 C 243.946 181.893,254.590 176.400,255.536 176.400 C 255.741 176.400,256.424 176.131,257.054 175.802 C 257.684 175.474,258.533 175.204,258.940 175.202 C 259.346 175.201,260.246 174.949,260.940 174.642 C 262.071 174.141,263.276 173.886,269.600 172.813 L 271.400 172.507 269.800 172.448 C 266.687 172.334,257.590 174.748,252.200 177.117 C 246.364 179.683,240.623 183.768,235.077 189.303 C 233.139 191.236,231.384 192.714,231.177 192.586 C 229.652 191.644,231.035 158.687,232.854 152.600 C 239.273 131.121,254.679 119.201,278.884 116.985 C 282.917 116.616,284.800 114.727,284.800 111.051 C 284.800 106.240,280.491 104.771,270.800 106.277 M142.300 172.293 C 143.235 172.377,144.765 172.377,145.700 172.293 C 146.635 172.209,145.870 172.140,144.000 172.140 C 142.130 172.140,141.365 172.209,142.300 172.293 M273.911 172.293 C 274.851 172.378,276.291 172.377,277.111 172.291 C 277.930 172.205,277.160 172.136,275.400 172.137 C 273.640 172.139,272.970 172.209,273.911 172.293 M149.800 172.812 C 150.680 172.984,152.660 173.337,154.200 173.597 C 159.702 174.525,170.060 178.640,174.561 181.685 C 185.502 189.089,193.400 200.149,197.429 213.709 C 197.806 214.979,198.205 215.928,198.315 215.818 C 198.767 215.366,195.988 207.346,193.874 203.000 C 187.905 190.734,175.930 179.867,163.800 175.711 C 158.098 173.757,152.159 172.374,149.800 172.449 L 148.200 172.500 149.800 172.812 M135.400 183.872 C 125.399 186.352,119.847 189.235,113.355 195.320 C 110.597 197.905,106.112 203.613,105.168 205.740 C 104.958 206.213,104.378 207.320,103.879 208.200 C 98.915 216.955,98.144 233.340,102.220 243.439 C 103.907 247.618,107.009 253.200,107.646 253.200 C 107.841 253.200,108.000 253.400,108.000 253.644 C 108.000 255.087,114.631 261.604,119.636 265.082 C 127.625 270.633,141.982 273.792,150.200 271.808 C 151.520 271.489,153.070 271.222,153.644 271.214 C 157.430 271.163,167.056 266.703,171.694 262.852 C 173.071 261.709,179.147 255.640,179.807 254.749 C 181.378 252.627,183.405 249.237,184.263 247.296 C 184.821 246.033,185.530 244.433,185.839 243.740 C 186.147 243.046,186.400 242.179,186.400 241.813 C 186.400 241.447,186.612 240.754,186.872 240.274 C 189.174 236.010,189.124 220.845,186.786 214.400 C 183.742 206.008,180.690 200.881,176.227 196.662 C 170.811 191.543,169.056 190.186,165.400 188.294 C 161.347 186.197,156.480 184.404,154.814 184.394 C 154.256 184.391,153.080 184.129,152.200 183.812 C 149.978 183.011,138.709 183.052,135.400 183.872 M152.200 184.359 C 166.980 187.431,177.568 195.626,184.008 208.978 C 185.104 211.250,186.000 213.302,186.000 213.540 C 186.000 213.778,186.280 214.798,186.623 215.807 C 189.667 224.772,188.601 236.573,183.839 246.624 C 168.238 279.559,120.948 280.001,104.663 247.364 C 97.663 233.335,99.131 213.221,107.952 202.284 C 120.040 187.297,135.739 180.937,152.200 184.359 " stroke="none" fill="#747474" fill-rule="evenodd"></path><path id="path4" d="M100.101 162.200 C 100.105 163.080,100.187 163.393,100.283 162.895 C 100.379 162.398,100.375 161.678,100.275 161.295 C 100.175 160.913,100.096 161.320,100.101 162.200 M88.594 214.200 C 88.594 243.240,88.642 255.061,88.700 240.469 C 88.758 225.877,88.758 202.117,88.700 187.669 C 88.642 173.221,88.594 185.160,88.594 214.200 M230.895 177.676 C 230.794 193.247,230.801 193.306,232.623 191.743 L 233.800 190.734 232.505 191.591 L 231.210 192.447 231.100 177.724 L 230.990 163.000 230.895 177.676 M138.900 172.276 C 139.285 172.376,139.915 172.376,140.300 172.276 C 140.685 172.175,140.370 172.093,139.600 172.093 C 138.830 172.093,138.515 172.175,138.900 172.276 M147.700 172.276 C 148.085 172.376,148.715 172.376,149.100 172.276 C 149.485 172.175,149.170 172.093,148.400 172.093 C 147.630 172.093,147.315 172.175,147.700 172.276 M270.305 172.283 C 270.802 172.379,271.522 172.375,271.905 172.275 C 272.287 172.175,271.880 172.096,271.000 172.101 C 270.120 172.105,269.807 172.187,270.305 172.283 M278.900 172.276 C 279.285 172.376,279.915 172.376,280.300 172.276 C 280.685 172.175,280.370 172.093,279.600 172.093 C 278.830 172.093,278.515 172.175,278.900 172.276 M182.783 187.700 C 183.764 188.745,184.619 189.600,184.683 189.600 C 184.984 189.600,184.666 189.241,182.900 187.583 L 181.000 185.800 182.783 187.700 M315.000 188.800 C 315.859 189.680,316.652 190.400,316.762 190.400 C 316.872 190.400,316.259 189.680,315.400 188.800 C 314.541 187.920,313.748 187.200,313.638 187.200 C 313.528 187.200,314.141 187.920,315.000 188.800 M100.114 225.400 C 100.117 226.500,100.195 226.903,100.287 226.295 C 100.379 225.686,100.377 224.786,100.282 224.295 C 100.187 223.803,100.111 224.300,100.114 225.400 M230.924 227.800 C 230.926 229.120,231.001 229.612,231.090 228.893 C 231.179 228.174,231.177 227.094,231.086 226.493 C 230.995 225.892,230.922 226.480,230.924 227.800 M100.109 230.000 C 100.109 230.990,100.187 231.395,100.282 230.900 C 100.378 230.405,100.378 229.595,100.282 229.100 C 100.187 228.605,100.109 229.010,100.109 230.000 M306.975 258.100 L 305.800 259.400 307.100 258.225 C 307.815 257.579,308.400 256.994,308.400 256.925 C 308.400 256.616,308.070 256.888,306.975 258.100 M230.901 264.600 C 230.905 265.480,230.987 265.793,231.083 265.295 C 231.179 264.798,231.175 264.078,231.075 263.695 C 230.975 263.313,230.896 263.720,230.901 264.600 M310.100 268.676 C 310.485 268.776,311.115 268.776,311.500 268.676 C 311.885 268.575,311.570 268.493,310.800 268.493 C 310.030 268.493,309.715 268.575,310.100 268.676 M224.500 271.476 C 224.885 271.576,225.515 271.576,225.900 271.476 C 226.285 271.375,225.970 271.293,225.200 271.293 C 224.430 271.293,224.115 271.375,224.500 271.476 " stroke="none" fill="#848484" fill-rule="evenodd"></path></g></svg>